<?xml version="1.0" encoding="UTF-8"?>
<svg id="Layer_2" xmlns="http://www.w3.org/2000/svg" viewBox="0 0 1803.41 1803.44">
  <defs>
    <style>
      .cls-1 {
        fill: #fff;
      }

      .cls-2 {
        fill: #010202;
      }
    </style>
  </defs>
  <g id="Layer_1-2" data-name="Layer_1">
    <g id="Layer_2-2" data-name="Layer_2">
      <g id="Layer_1-2">
        <g id="Layer_2-2">
          <g id="Layer_2-2-2">
            <path class="cls-1" d="M1732.52,550.71c-91.63-216.13-263.68-388.19-479.82-479.82C1141.5,23.85,1023.39,0,901.7,0s-239.79,23.89-351,70.89c-216.14,91.64-388.19,263.7-479.81,479.84C23.85,661.93,0,780.04,0,901.73s23.89,239.79,70.89,351c91.63,216.14,263.68,388.19,479.82,479.82,111.2,47.04,229.3,70.89,351,70.89s239.8-23.85,350.99-70.91c216.14-91.63,388.19-263.68,479.82-479.82,47.04-111.2,70.89-229.31,70.89-351s-23.89-239.79-70.89-351ZM901.71,1664.44c-346.17,0-639.22-231.82-732.06-548.37h1464.12c-92.84,316.55-385.89,548.37-732.06,548.37ZM901.71,139c366.06,0,672.71,259.22,746.05,603.72H155.66C229,398.22,535.66,139,901.71,139ZM1476.71,1037.5c0,20.76-16.83,37.58-37.58,37.58s-37.58-16.82-37.58-37.58,16.83-37.58,37.58-37.58,37.58,16.83,37.58,37.58ZM1247.57,883.07c-27.31,32.22-23.33,80.46,8.88,107.77,32.22,27.3,80.47,23.33,107.77-8.89v72c-21.07,13.29-45.47,20.34-70.38,20.32-75.33,0-136.39-63.47-136.39-141.77s61.06-141.78,136.39-141.78c24.91,0,49.31,7.06,70.38,20.35v72c-14.51-17.15-35.84-27.03-58.31-27v-.02c-22.47,0-43.81,9.88-58.34,27.02ZM946.58,904.9v56.9h-89.4v105.18h-71.72v-268.69h165.9v57.85h-94.66v48.76h89.88ZM935.49,1010.93c14.67-14.68,38.47-14.68,53.14,0,14.68,14.67,14.68,38.47,0,53.14-14.67,14.68-38.47,14.68-53.14,0-14.68-14.67-14.68-38.47,0-53.14ZM614.77,1037.5c0,20.76-16.83,37.58-37.58,37.58s-37.58-16.82-37.58-37.58,16.83-37.58,37.58-37.58,37.58,16.83,37.58,37.58ZM447.65,992.54c0-6.95-2.67-12.36-8-16.22-5.33-3.86-12.5-7.33-21.5-10.43-9.08-3.08-19.51-6.56-31.3-10.43-15.33-5.14-28-10.94-38-17.38-10-6.44-17.42-14.29-22.27-23.57-4.84-9.26-7.26-20.85-7.25-34.77,0-19.33,4.18-35.62,12.55-48.86,8.12-13.08,19.83-23.54,33.73-30.16,14.46-6.9,30.3-10.4,46.32-10.24,11.54-.03,23.02,1.55,34.12,4.68,10.58,2.96,20.88,6.86,30.77,11.65,9.54,4.67,18.08,9.34,25.63,14l-25.46,52.83c-.67-1.33-3.14-3.33-7.42-6-5.12-3.22-10.41-6.15-15.86-8.77-6.75-3.24-13.75-5.97-20.92-8.15-7.32-2.3-14.95-3.48-22.63-3.5-9.9,0-17.57,1.87-23,5.6-5.43,3.74-8.14,9.46-8.13,17.16,0,6.17,2.06,11.06,6.18,14.66,4.12,3.61,10.07,6.76,17.86,9.46,7.78,2.67,17.33,5.82,28.64,9.44,16,4.64,29.91,10.23,41.73,16.78,11.82,6.56,20.82,14.98,27,25.27,6.24,10.29,9.36,23.92,9.37,40.89,0,15.44-2.59,28.49-7.78,39.16-4.79,10.2-12,19.08-21,25.85-9.06,6.65-19.31,11.48-30.2,14.23-11.43,2.98-23.19,4.47-35,4.44-12.66-.04-25.28-1.41-37.66-4.08-12.67-2.65-25.05-6.56-36.95-11.65-11.5-4.88-22.41-11.06-32.51-18.42l25.44-55.55c.94,1.34,4,3.73,9.19,7.19,6.17,4.06,12.61,7.69,19.27,10.87,8.26,4,16.84,7.31,25.64,9.91,9.28,2.83,18.93,4.27,28.64,4.27,10.37,0,18.09-1.77,23.16-5.32,4.94-3.29,7.82-8.9,7.6-14.84Z"/>
            <path class="cls-2" d="M1630.77,1116.07c-92.74,314.94-384.48,545.49-729.06,545.49s-636.32-230.55-729.06-545.49h-3c92.84,316.55,385.89,548.37,732.06,548.37s639.22-231.82,732.06-548.37h-3ZM901.71,139c-366.05,0-672.71,259.22-746.05,603.72h2.95C231.89,399.81,537.23,141.88,901.71,141.88s669.82,257.93,743.1,600.84h2.95c-73.34-344.5-379.99-603.72-746.05-603.72Z"/>
          </g>
        </g>
      </g>
    </g>
  </g>
</svg>